<svg width="40" height="36" viewBox="0 0 40 36" fill="none" xmlns="http://www.w3.org/2000/svg">
<path fill-rule="evenodd" clip-rule="evenodd" d="M11.4515 24.4271C12.2451 24.8473 13.1498 25.0279 14.0498 24.9457C14.9499 24.8634 15.804 24.5221 16.5027 23.9655C17.2014 23.4088 17.7128 22.6623 17.9712 21.8217C18.2297 20.9811 18.2234 20.0847 17.9532 19.2476C17.6108 18.1801 17.4888 17.0576 17.5943 15.9443C17.6997 14.8311 18.0306 13.7489 18.5679 12.76C19.1052 11.7711 19.8384 10.8947 20.7253 10.1813C21.6123 9.46782 22.6357 8.93134 23.7368 8.60245C24.5908 8.34289 25.3465 7.84398 25.9089 7.16857C26.4714 6.49317 26.8154 5.67141 26.8977 4.80668C26.98 3.94195 26.7969 3.07292 26.3714 2.309C25.946 1.54502 25.2971 0.920238 24.5066 0.513293C23.7161 0.106347 22.8192 -0.0646463 21.9289 0.0219287C21.0384 0.10845 20.1943 0.448604 19.5026 0.999644C18.8109 1.55063 18.3027 2.28786 18.0418 3.11852C17.7809 3.94918 17.779 4.83617 18.0364 5.66785C18.712 7.81497 18.4835 10.1344 17.4011 12.1185C16.3185 14.1026 14.4702 15.5896 12.2605 16.2543C11.3881 16.4998 10.6118 16.9937 10.032 17.6722C9.45225 18.3507 9.09566 19.1824 9.0085 20.0597C8.9214 20.937 9.10766 21.8195 9.54324 22.5929C9.97881 23.3664 10.6436 23.9951 11.4515 24.3978V24.4271ZM39.341 29.3132C39.0203 28.8179 38.6011 28.3895 38.1078 28.0532C37.6145 27.7168 37.0571 27.4793 36.4681 27.3544C34.2148 26.8458 32.2605 25.4924 31.0322 23.5898C29.8041 21.6872 29.4019 19.3903 29.9135 17.2008C30.1102 16.3546 30.0449 15.4708 29.7257 14.6605C29.4065 13.8502 28.8477 13.1494 28.1195 12.6463C27.3912 12.1432 26.526 11.8601 25.6324 11.8326C24.739 11.8051 23.857 12.0343 23.0974 12.4916C22.3377 12.949 21.7343 13.6139 21.3627 14.4029C20.9913 15.192 20.8683 16.0699 21.0093 16.9266C21.1503 17.7832 21.5491 18.5804 22.1554 19.2178C22.7617 19.8553 23.5486 20.3047 24.4173 20.5095C25.5411 20.7555 26.6038 21.2143 27.5445 21.8596C28.4852 22.5049 29.2854 23.3241 29.8992 24.27C30.5131 25.2161 30.9285 26.2703 31.1216 27.3724C31.3148 28.4745 31.2819 29.6028 31.0249 30.6925C30.8727 31.395 30.8998 32.123 31.104 32.8129C31.3081 33.5029 31.6831 34.1339 32.1961 34.6511C32.7092 35.1683 33.3448 35.5558 34.0476 35.7799C34.7503 36.0041 35.4989 36.058 36.228 35.9371C36.9573 35.8162 37.6449 35.524 38.2311 35.0861C38.8172 34.6482 39.2841 34.0778 39.5911 33.4247C39.898 32.7715 40.0357 32.0554 39.9921 31.3389C39.9485 30.6222 39.725 29.9268 39.341 29.3132ZM21.3807 24.1114C21.9285 23.8657 22.5213 23.7286 23.1244 23.7081C23.8653 23.6898 24.5995 23.848 25.2629 24.1688C25.9262 24.4896 26.4984 24.9631 26.9295 25.5481C27.3606 26.1332 27.6374 26.8118 27.7357 27.5246C27.834 28.2375 27.7508 28.9628 27.4935 29.6372C27.236 30.3117 26.8123 30.9147 26.2592 31.3934C25.7062 31.8722 25.0407 32.2121 24.3209 32.3835C23.6012 32.5549 22.8491 32.5526 22.1304 32.3767C21.4118 32.2009 20.7486 31.8568 20.1987 31.3746C19.354 30.6136 18.3629 30.0218 17.2822 29.6331C16.2014 29.2443 15.0522 29.0664 13.9005 29.1093C12.7488 29.1522 11.6171 29.4153 10.5702 29.8833C9.52341 30.3513 8.58204 31.0152 7.79999 31.8368C7.28592 32.3538 6.64925 32.7408 5.94553 32.964C5.24186 33.1872 4.49253 33.2399 3.76303 33.1175C3.03354 32.995 2.34604 32.7013 1.76047 32.2616C1.17491 31.822 0.709169 31.25 0.403805 30.5956C0.0984401 29.9411 -0.0371605 29.2241 0.00872472 28.507C0.0546655 27.79 0.280703 27.0947 0.667227 26.482C1.0537 25.8693 1.58882 25.3576 2.22599 24.9918C2.86311 24.6259 3.58288 24.4169 4.32238 24.383C4.92316 24.3602 5.52261 24.4535 6.08585 24.6576C6.64914 24.8616 7.16498 25.1723 7.60345 25.5715C9.30042 27.0955 11.5502 27.9055 13.8608 27.8244C16.1714 27.7432 18.355 26.7777 19.934 25.1387C20.341 24.7063 20.8328 24.3571 21.3807 24.1114Z" fill="#355B3E"/>
</svg>
